HIERARCHY
ROOT Hips
{
	OFFSET 0.00000 0.00000 0.00000
	CHANNELS 6 Xposition Yposition Zposition Zrotation Yrotation Xrotation 
	JOINT LHipJoint
	{
		OFFSET 0 0 0
		CHANNELS 3 Zrotation Yrotation Xrotation
		JOINT LeftUpLeg
		{
			OFFSET 1.37324 -1.83837 0.85674
			CHANNELS 3 Zrotation Yrotation Xrotation
			JOINT LeftLeg
			{
				OFFSET 2.53826 -6.97383 0.00000
				CHANNELS 3 Zrotation Yrotation Xrotation
				JOINT LeftFoot
				{
					OFFSET 2.65296 -7.28895 0.00000
					CHANNELS 3 Zrotation Yrotation Xrotation
					JOINT LeftToeBase
					{
						OFFSET 0.22100 -0.60718 2.29776
						CHANNELS 3 Zrotation Yrotation Xrotation
						End Site
						{
							OFFSET 0.00000 -0.00000 1.19228
						}
					}
				}
			}
		}
	}
	JOINT RHipJoint
	{
		OFFSET 0 0 0
		CHANNELS 3 Zrotation Yrotation Xrotation
		JOINT RightUpLeg
		{
			OFFSET -1.30156 -1.83836 0.85673
			CHANNELS 3 Zrotation Yrotation Xrotation
			JOINT RightLeg
			{
				OFFSET -2.63627 -7.24310 0.00000
				CHANNELS 3 Zrotation Yrotation Xrotation
				JOINT RightFoot
				{
					OFFSET -2.62024 -7.19904 0.00000
					CHANNELS 3 Zrotation Yrotation Xrotation
					JOINT RightToeBase
					{
						OFFSET -0.20765 -0.57052 2.42402
						CHANNELS 3 Zrotation Yrotation Xrotation
						End Site
						{
							OFFSET -0.00000 -0.00000 1.24980
						}
					}
				}
			}
		}
	}
	JOINT LowerBack
	{
		OFFSET 0 0 0
		CHANNELS 3 Zrotation Yrotation Xrotation
		JOINT Spine
		{
			OFFSET 0.05739 2.14162 -0.22815
			CHANNELS 3 Zrotation Yrotation Xrotation
			JOINT Spine1
			{
				OFFSET 0.02798 2.14167 0.08145
				CHANNELS 3 Zrotation Yrotation Xrotation
				JOINT Neck
				{
					OFFSET 0 0 0
					CHANNELS 3 Zrotation Yrotation Xrotation
					JOINT Neck1
					{
						OFFSET -0.07019 1.58903 0.32980
						CHANNELS 3 Zrotation Yrotation Xrotation
						JOINT Head
						{
							OFFSET -0.03205 1.65283 -0.21190
							CHANNELS 3 Zrotation Yrotation Xrotation
							End Site
							{
								OFFSET -0.00726 1.66788 -0.10849
							}
						}
					}
				}
				JOINT LeftShoulder
				{
					OFFSET 0 0 0
					CHANNELS 3 Zrotation Yrotation Xrotation
					JOINT LeftArm
					{
						OFFSET 3.92858 0.97533 -0.07938
						CHANNELS 3 Zrotation Yrotation Xrotation
						JOINT LeftForeArm
						{
							OFFSET 5.58345 -0.00000 -0.00000
							CHANNELS 3 Zrotation Yrotation Xrotation
							JOINT LeftHand
							{
								OFFSET 3.71087 -0.00000 0.00000
								CHANNELS 3 Zrotation Yrotation Xrotation
								JOINT LeftFingerBase
								{
									OFFSET 0 0 0
									CHANNELS 3 Zrotation Yrotation Xrotation
									JOINT LeftHandIndex1
									{
										OFFSET 0.56232 -0.00000 -0.00000
										CHANNELS 3 Zrotation Yrotation Xrotation
										End Site
										{
											OFFSET 0.45336 -0.00000 -0.00000
										}
									}
								}
								JOINT LThumb
								{
									OFFSET 0 0 0
									CHANNELS 3 Zrotation Yrotation Xrotation
									End Site
									{
										OFFSET 0.46028 -0.00000 0.46028
									}
								}
							}
						}
					}
				}
				JOINT RightShoulder
				{
					OFFSET 0 0 0
					CHANNELS 3 Zrotation Yrotation Xrotation
					JOINT RightArm
					{
						OFFSET -3.89897 1.08887 -0.22589
						CHANNELS 3 Zrotation Yrotation Xrotation
						JOINT RightForeArm
						{
							OFFSET -5.20357 -0.00000 -0.00000
							CHANNELS 3 Zrotation Yrotation Xrotation
							JOINT RightHand
							{
								OFFSET -3.64937 -0.00000 0.00000
								CHANNELS 3 Zrotation Yrotation Xrotation
								JOINT RightFingerBase
								{
									OFFSET 0 0 0
									CHANNELS 3 Zrotation Yrotation Xrotation
									JOINT RightHandIndex1
									{
										OFFSET -0.61800 -0.00000 -0.00000
										CHANNELS 3 Zrotation Yrotation Xrotation
										End Site
										{
											OFFSET -0.49824 -0.00000 -0.00000
										}
									}
								}
								JOINT RThumb
								{
									OFFSET 0 0 0
									CHANNELS 3 Zrotation Yrotation Xrotation
									End Site
									{
										OFFSET -0.50585 -0.00000 0.50585
									}
								}
							}
						}
					}
				}
			}
		}
	}
}
MOTION
Frames: 7
Frame Time: .0083333
0.3816 16.0442 7.1491 0 0 0 0 0 0 -21 0 0 0 0 0 0 0 0 0 0 0 0 0 0 21 0 0 0 0 0 0 0 0 0 0 0 0 0 0 0 0 0 0 0 0 0 0 -16 0 0 21 0 0 11 0 0 0 -8 0 0 0 0 0 0 0 0 0 0 0 0 0 0 0 0 0 0 0 0 8 0 0 0 0 0 0 0 0 0 0 0 0 0 0 0 0 0
0.3816 16.0442 7.1491 -8.7611 10.3804 -20.7855 0.0000 0.0000 0.0000 -13.4922 -12.3502 -29.1884 10.6658 17.7676 61.6916 -0.5971 -15.3214 -2.0301 0.8028 -5.7185 -15.9698 0.0000 0.0000 0.0000 23.2742 0.5564 -28.9837 -17.0550 -19.7908 81.3604 0.0575 -5.7567 2.0399 -0.0620 1.6061 -4.4183 6.1537 -0.4214 20.0800 4.5728 1.2231 2.9287 1.1428 0.4928 -8.0396 -3.4635 -3.5604 -21.8696 -1.9691 -3.2620 22.2479 -0.6475 -2.0369 10.8280 -0.0000 0.0000 0.0000 -83.5227 31.6179 40.6920 120.1897 -56.2592 -85.8167 -0.0000 0.0000 -7.4899 22.9751 -11.3323 -4.7622 -7.1250 0.0000 -0.0000 -2.9115 17.7092 1.8904 -0.0000 0.0000 0.0000 72.0806 -12.7899 34.7044 -69.7210 58.3876 -42.5330 0.0000 0.0000 4.7725 -32.1693 5.3092 -3.3309 7.1250 -0.0000 -0.0000 -4.0625 -23.7175 -2.0904
0.4089 16.0757 7.4868 -7.8413 9.9224 -20.7626 0.0000 0.0000 0.0000 -14.2602 -12.3234 -27.3535 10.3735 17.6146 60.7297 -0.5727 -14.8717 -1.7136 0.8483 -5.8742 -16.4199 0.0000 0.0000 0.0000 22.2528 0.7542 -29.8834 -17.6037 -19.8618 82.9783 0.1488 -7.4324 0.4270 -0.0375 1.2498 -3.4365 5.4176 -0.2561 20.0833 4.2835 1.2423 3.0707 1.2356 0.5217 -7.8928 -3.3426 -3.4381 -21.8214 -2.0020 -3.1256 22.2638 -0.6570 -1.9688 10.8208 -0.0000 -0.0000 0.0000 -83.7807 32.2788 40.6419 120.6356 -56.1382 -86.1872 -0.0000 0.0000 -8.3300 22.7443 -11.1453 -4.6327 -7.1250 0.0000 -0.0000 -3.0659 17.9316 1.9759 -0.0000 -0.0000 0.0000 72.0253 -12.6358 35.0822 -73.7653 58.9803 -45.9885 0.0000 0.0000 3.9656 -31.8632 4.9492 -3.0694 7.1250 -0.0000 -0.0000 -3.8641 -24.1596 -1.9484
0.4326 16.0973 7.8248 -6.9605 9.6603 -21.0070 0.0000 0.0000 0.0000 -15.1440 -12.2602 -25.1199 10.1172 17.4752 59.8793 -0.5721 -14.6862 -1.3441 0.9163 -6.0992 -17.0724 0.0000 0.0000 0.0000 21.2679 0.5564 -30.5823 -17.8260 -19.8863 83.6319 0.2851 -9.6270 -1.3931 -0.0004 -0.1236 0.3395 4.6750 -0.1526 20.4219 3.9980 1.2089 3.2075 1.3534 0.5217 -7.9340 -3.2689 -3.3316 -21.7688 -2.0316 -2.9960 22.2912 -0.6589 -1.9074 10.8185 0.0000 -0.0000 0.0000 -83.9428 32.8325 40.7713 121.0435 -56.0254 -86.5257 -0.0000 0.0000 -9.1387 22.4313 -10.8423 -4.4402 -7.1250 0.0000 -0.0000 -3.2748 18.2847 2.0854 0.0000 -0.0000 0.0000 72.1504 -12.5992 35.2495 -77.9134 59.4407 -49.5523 0.0000 0.0000 2.7945 -31.5942 4.6007 -2.8244 7.1250 -0.0000 -0.0000 -3.6898 -24.5833 -1.8239
0.4527 16.1048 8.1596 -6.0763 9.2462 -21.0014 0.0000 0.0000 0.0000 -15.9421 -11.9532 -23.2644 9.9211 17.3653 59.2245 -0.6701 -15.9094 -1.5476 0.6441 -5.1343 -14.2920 0.0000 0.0000 0.0000 20.3344 0.7896 -31.5518 -17.8842 -19.8923 83.8030 0.4653 -12.0436 -3.1710 -0.0252 -1.0256 2.8192 3.8758 0.0161 20.5605 3.7534 1.2377 3.2641 1.5326 0.5532 -7.9571 -3.1955 -3.1997 -21.8270 -2.0617 -2.8233 22.4269 -0.6580 -1.8278 10.8770 -0.0000 0.0000 0.0000 -84.1267 33.2697 40.9857 121.3964 -55.9262 -86.8182 -0.0000 0.0000 -9.7492 22.2528 -10.5798 -4.2963 -7.1250 0.0000 -0.0000 -3.3919 18.5816 2.1380 -0.0000 0.0000 0.0000 72.2915 -12.5457 35.3469 -82.0290 59.7585 -53.1025 0.0000 0.0000 1.8065 -31.2907 4.2960 -2.6068 7.1250 -0.0000 -0.0000 -3.4844 -24.9558 -1.6919
0.4735 16.1094 8.4923 -5.5700 9.1350 -21.2139 0.0000 0.0000 0.0000 -16.6046 -11.7064 -21.2610 9.8096 17.3014 58.8502 -0.8625 -18.1941 -2.1797 0.3869 -3.9944 -11.0610 0.0000 0.0000 0.0000 19.7177 0.8545 -32.1733 -17.6286 -19.8646 83.0514 0.6201 -13.7900 -4.9747 -0.1070 -2.1094 5.8082 3.4342 -0.0141 20.8715 3.5782 1.1009 3.3041 1.6305 0.4955 -8.0843 -3.1438 -3.0832 -21.7425 -2.0976 -2.6714 22.4740 -0.6550 -1.7592 10.8766 -0.0000 -0.0000 0.0000 -84.2641 33.5314 41.3065 121.6143 -55.8642 -86.9986 -0.0000 0.0000 -10.2937 22.0847 -10.3838 -4.1827 -7.1250 0.0000 -0.0000 -3.5047 18.8055 2.1920 -0.0000 -0.0000 0.0000 72.4694 -12.5720 35.4617 -86.2161 59.9458 -56.7237 0.0000 0.0000 0.8883 -31.1388 3.8787 -2.3403 7.1250 -0.0000 -0.0000 -3.3978 -25.4495 -1.6107
0.4948 16.0975 8.8170 -4.9171 8.3871 -21.1784 0.0000 0.0000 0.0000 -17.1540 -10.6679 -19.8262 9.8367 17.3170 58.9413 -1.0035 -19.6574 -2.5125 0.1224 -2.2550 -6.2110 0.0000 0.0000 0.0000 19.1631 1.7415 -32.8748 -17.1080 -19.7983 81.5169 0.6633 -14.2742 -6.2327 -0.2244 -3.0496 8.4168 2.9496 0.2022 21.1085 3.4274 1.2747 3.2786 1.6950 0.5879 -8.2472 -3.1548 -2.9730 -21.7036 -2.0746 -2.5199 22.5380 -0.6214 -1.6890 10.8931 0.0000 -0.0000 0.0000 -84.3713 33.6430 41.7769 121.7095 -55.8369 -87.0774 -0.0000 0.0000 -10.4924 22.1093 -10.1281 -4.0862 -7.1250 0.0000 -0.0000 -3.4796 19.0775 2.1552 0.0000 -0.0000 0.0000 72.7198 -12.6561 35.4827 -90.2690 59.9997 -60.2330 0.0000 0.0000 0.2394 -31.1149 3.5354 -2.1316 7.1250 -0.0000 -0.0000 -3.4014 -25.8504 -1.5806
